# xmcd
#
# Track frame offsets:
#	185
#	12415
#	26452
#	44997
#	60695
#	74072
#	85647
#	102935
#	117842
#	137355
#	151687
#	163670
#	179015
#	190302
#	200832
#	215217
#	229690
#	240450
#	258340
#	276807
#	293322
#	303527
#	319150
#
# Disc length: 4529 seconds
#
# Revision: 0
# Processed by: cddbd v1.5.1PL2 Copyright (c) Steve Scherf et al.
# Submitted via: audiograbber 1.83.01
#
DISCID=5111af17
DTITLE=Александр Дольский - Звезда на ладони
DYEAR=1995
DGENRE=Ballad
TTITLE0=Звезда на ладони
TTITLE1=От прощания до прощания
TTITLE2=Сентябрь. Дожди.
TTITLE3=Посещение Маленького Принца
TTITLE4=Аленушка
TTITLE5=Удивительный Вальс
TTITLE6=Старинные часы
TTITLE7=Пианист
TTITLE8=Одиночество
TTITLE9=Март. Сумерки.
TTITLE10=Говорите, я молчу
TTITLE11=Государство Синих Глаз
TTITLE12=Две птицы
TTITLE13=Осенняя песня
TTITLE14=Две вины
TTITLE15=Два мальчика на длинном берегу
TTITLE16=Три сына
TTITLE17=Когда тебе и пусто и печально
TTITLE18=Там, где сердце
TTITLE19=Прощай, XX век
TTITLE20=Этот день
TTITLE21=Когда легчают сожаленья
TTITLE22=Ладони на глазах
EXTD=
EXTT0=
EXTT1=
EXTT2=
EXTT3=
EXTT4=
EXTT5=
EXTT6=
EXTT7=
EXTT8=
EXTT9=
EXTT10=
EXTT11=
EXTT12=
EXTT13=
EXTT14=
EXTT15=
EXTT16=
EXTT17=
EXTT18=
EXTT19=
EXTT20=
EXTT21=
EXTT22=
PLAYORDER=
